PathFileType	4	(X/Y/Z)	C:\Users\Basilio\Documents\Thesis Gigler\squatting_fais\c3dfiles\039\SLS_pre_back4\markers_experimental.trc
DataRate	CameraRate	NumFrames	NumMarkers	Units	OrigDataRate	OrigDataStartFrame	OrigNumFrames
200.000000	200.000000	4	64	mm	200.000000	799	2133
Frame#	Time	FHD			LBHD			RBHD			C7			T10			CLAV			LSHO			LUUPA			LMUPA			LDUPA			LLEP			LMEP			LRAD			LUL			LRFIN			RSHO			RUPA1			RMUPA			RDUPA			RLEP			RMEP			RRAD			RUL			RUFIN			LASI			RASI			USACR			LSACR			RSACR			LTHI1			LTHI2			LTHI3			LTHI4			LLFC			LMFC			LTIB1			LTIB2			LTIB3			LTIB4			LLMAL			LMMAL			LHEE			LMT1			LMT2			LMT5			RTHI			RTHI2			RTHI3			RTHI4			RLFC			RMFC			RTIB1			RTIB2			RTIB3			RTIB4			RLMAL			RMMAL			RHEE			RMT1			RMT2			RMT5			*61			*62			*63			
		X1	Y1	Z1	X2	Y2	Z2	X3	Y3	Z3	X4	Y4	Z4	X5	Y5	Z5	X6	Y6	Z6	X7	Y7	Z7	X8	Y8	Z8	X9	Y9	Z9	X10	Y10	Z10	X11	Y11	Z11	X12	Y12	Z12	X13	Y13	Z13	X14	Y14	Z14	X15	Y15	Z15	X16	Y16	Z16	X17	Y17	Z17	X18	Y18	Z18	X19	Y19	Z19	X20	Y20	Z20	X21	Y21	Z21	X22	Y22	Z22	X23	Y23	Z23	X24	Y24	Z24	X25	Y25	Z25	X26	Y26	Z26	X27	Y27	Z27	X28	Y28	Z28	X29	Y29	Z29	X30	Y30	Z30	X31	Y31	Z31	X32	Y32	Z32	X33	Y33	Z33	X34	Y34	Z34	X35	Y35	Z35	X36	Y36	Z36	X37	Y37	Z37	X38	Y38	Z38	X39	Y39	Z39	X40	Y40	Z40	X41	Y41	Z41	X42	Y42	Z42	X43	Y43	Z43	X44	Y44	Z44	X45	Y45	Z45	X46	Y46	Z46	X47	Y47	Z47	X48	Y48	Z48	X49	Y49	Z49	X50	Y50	Z50	X51	Y51	Z51	X52	Y52	Z52	X53	Y53	Z53	X54	Y54	Z54	X55	Y55	Z55	X56	Y56	Z56	X57	Y57	Z57	X58	Y58	Z58	X59	Y59	Z59	X60	Y60	Z60	X61	Y61	Z61	X62	Y62	Z62	X63	Y63	Z63	X64	Y64	Z64	

800	3.995	-195.341293334961	1747.152709960938	-653.3445434570314	-359.1452026367188	1741.005126953125	-770.1453247070315	-327.8112182617188	1740.875610351563	-631.7346191406251	-417.2526245117189	1576.21435546875	-710.6367797851564	-447.0907592773439	1267.06396484375	-745.1581420898439	nan	nan	nan	-349.9237060546876	1597.437744140625	-863.3924560546877	-189.7786560058594	1564.79931640625	-983.4382324218752	-165.3904571533203	1596.932006835938	-953.8167114257815	-120.7953186035157	1575.907592773438	-987.3276977539065	-53.91457366943361	1585.757446289063	-986.1636352539065	-46.37996292114259	1513.477905273438	-956.0456542968752	224.4565124511719	1620.447143554688	-897.6658935546877	224.3491821289063	1630.775024414063	-973.3606567382815	298.2572326660157	1667.0439453125	-887.8364868164065	-300.3394165039063	1575.667602539063	-561.9873657226564	-136.9572296142578	1515.810302734375	-462.3704223632814	-111.9366302490235	1550.47802734375	-488.2122497558595	-68.23036956787111	1516.150268554688	-464.7020874023439	-6.878950595855715	1533.214477539063	-475.197479248047	1.450113892555237	1467.240356445313	-516.0720825195314	277.2457885742188	1594.755859375	-554.6466674804689	280.3650512695313	1582.383544921875	-479.7040100097657	354.7397460937501	1643.017456054688	-549.6979370117189	-296.6272583007813	1082.260498046875	-889.685485839844	-273.1430358886719	1059.716186523438	-667.8003540039064	-463.8303222656251	1137.48046875	-753.0521240234376	-471.2128906250001	1106.810668945313	-782.4585571289065	-464.007293701172	1102.719848632813	-723.0846557617189	-326.1250915527344	819.4390258789065	-1000.523132324219	-277.1772766113282	752.6182250976564	-1022.133850097656	-230.4577941894532	762.4927368164064	-1019.749938964844	-291.3442077636719	692.4850463867189	-1014.607116699219	-269.9617004394532	606.2993774414064	-1017.476257324219	-229.4053344726563	557.2477416992189	-919.3094482421877	-345.7441101074219	490.0620117187501	-991.2044677734377	-414.1362609863282	545.3791503906251	-1003.438232421875	-402.7195129394532	503.2911071777345	-998.320495605469	-462.7849731445314	471.3464965820314	-941.3691406250002	-650.6076660156251	477.4831542968751	-916.7686157226565	-607.1979370117189	454.1012573242189	-844.732360839844	-671.5421142578126	538.8366699218751	-860.488952636719	-663.5670166015626	307.2740173339844	-828.6507568359377	-692.6383056640626	309.9825134277344	-859.3007812500002	-744.7357788085939	351.8250427246094	-881.985534667969	-286.6758728027344	788.7242431640627	-615.2084350585939	-237.5638122558594	742.4552612304689	-618.5231323242189	-207.2592315673829	751.9018554687501	-626.6973266601564	-251.6815338134766	659.7955322265626	-637.5762329101564	-267.4542846679688	524.5479125976564	-673.6522216796876	-236.9673309326172	529.1046752929689	-788.062194824219	-251.5911254882813	316.0064086914063	-717.5940551757814	-344.8603210449219	261.1475219726563	-711.5713500976564	-300.5491027832032	246.6134948730469	-716.1810913085939	-289.7789001464844	201.4017181396485	-755.7067871093751	-368.7535095214844	116.9002761840821	-739.8175048828126	-338.7624206542969	137.4803161621094	-823.9207763671877	-439.5184326171876	97.84389495849612	-794.0112915039065	-214.8226623535157	53.45725250244142	-805.7590942382815	-218.763900756836	54.63472747802736	-759.9199218750001	-273.8714904785157	35.49855041503907	-708.0541381835939	nan	nan	nan	nan	nan	nan	nan	nan	nan	
801	4	-195.3095245361329	1746.885131835938	-653.2924804687501	-358.9407958984376	1740.640869140625	-770.124206542969	-327.8229370117188	1740.673461914063	-631.6921997070314	-416.9864501953126	1575.708618164063	-710.6800537109376	-447.1257629394532	1266.76220703125	-745.1602783203126	nan	nan	nan	-349.7549438476563	1597.131713867188	-863.382263183594	-189.7569427490235	1564.517700195313	-983.4357910156252	-165.2395782470703	1596.756591796875	-953.6298828125002	-120.7006072998047	1575.60205078125	-987.3226318359377	-53.71886062622072	1585.604614257813	-986.1306762695315	-46.19107055664063	1513.0791015625	-956.084655761719	224.5053253173829	1620.233032226563	-897.728210449219	224.4614868164063	1630.492431640625	-973.3985595703127	298.2573547363282	1666.665771484375	-887.8726196289065	-300.2197875976563	1575.25537109375	-561.9468383789064	-137.3932189941407	1514.7978515625	-462.8607482910157	-111.9086380004883	1550.202514648438	-488.2631225585939	-68.13574981689455	1515.796264648438	-464.7042541503907	-6.769153118133547	1532.876831054688	-475.2403869628907	1.607305407524109	1466.854858398438	-516.1318359375001	277.3399658203126	1594.436279296875	-554.6693115234376	280.4833374023438	1582.0712890625	-479.8245544433595	354.9015197753907	1642.60400390625	-549.8266601562501	-296.7380981445313	1081.95166015625	-889.6164550781252	-273.2187500000001	1059.368286132813	-667.8183593750001	-463.873748779297	1137.107666015625	-752.9904174804689	-471.3800048828126	1106.593017578125	-782.4029541015627	-464.0569763183595	1102.312866210938	-722.9763793945314	-326.1134033203126	819.245056152344	-1000.475891113281	-277.2157897949219	752.3706054687501	-1022.032165527344	-230.501205444336	762.1867065429689	-1019.712524414063	-291.3979187011719	692.1826782226564	-1014.591186523438	-269.9305419921876	606.0714111328126	-1017.454772949219	-229.4573364257813	557.0350952148439	-919.3454589843752	-346.0255737304688	490.2016601562501	-991.4412231445315	-414.1426696777345	545.2238159179689	-1003.4189453125	-402.7029418945314	503.1101074218751	-998.2940673828127	-462.8392333984376	471.2364196777345	-941.423034667969	-650.6209716796876	477.3698120117189	-916.7226562500002	-606.6190185546876	454.5134582519532	-844.1511230468752	-671.4146118164064	538.7584838867189	-860.5177001953127	-663.6903686523439	307.2661132812501	-828.5054931640627	-692.8014526367189	309.9574890136719	-859.1032714843752	-744.8762207031251	351.8549194335938	-881.7869873046877	-286.3822631835938	788.3638916015627	-615.1730957031251	-237.2988739013672	742.2805175781251	-618.4784545898439	-206.8952636718751	751.5461425781251	-626.8258666992189	-251.1633300781251	659.4146728515626	-637.5656127929689	-267.0161132812501	524.3670043945314	-673.6408691406251	-236.5435180664063	528.9882812500001	-788.154235839844	-251.1526641845704	315.8003845214844	-717.8303833007814	-344.5054626464844	260.9703063964844	-711.5828857421876	-300.2054748535157	246.3590850830079	-716.3043823242189	-289.6792907714844	201.4103698730469	-755.9444580078126	-368.7053527832032	116.8986740112305	-739.9090576171876	-338.7198486328126	137.46630859375	-824.0865478515627	-439.4889526367189	97.86580657958987	-794.0191040039065	-214.8508453369141	53.45031738281251	-805.7820434570315	-218.7884674072266	54.59223556518556	-759.9494018554689	-273.8189392089844	35.40536117553712	-708.1596679687501	nan	nan	nan	nan	nan	nan	nan	nan	nan	
802	4.005	-195.2647094726563	1746.732421875	-653.2065429687501	-359.2780151367188	1740.314575195313	-769.964294433594	-327.8160400390626	1740.048828125	-631.5029907226564	-417.1749877929689	1575.53662109375	-710.7134399414064	-447.0295410156251	1266.468139648438	-745.2199707031251	nan	nan	nan	-349.6015930175782	1596.773803710938	-863.3461914062502	-189.705062866211	1564.199462890625	-983.3829345703127	-165.2545776367188	1596.610473632813	-953.766784667969	-120.5978698730469	1575.334838867188	-987.3186645507815	-53.65132522583009	1585.103515625	-986.0976562500002	-46.04722213745118	1512.796997070313	-956.1701660156252	224.5485076904297	1619.92138671875	-897.7842407226565	224.5816802978516	1630.151733398438	-973.4390258789065	298.4023437500001	1666.116455078125	-887.7722167968752	-300.1412658691407	1574.942504882813	-561.8517456054689	-136.9644775390625	1514.851318359375	-462.3572998046876	-111.8273010253907	1549.917114257813	-488.3304748535157	-68.03231811523439	1515.388305664063	-464.7203063964845	-6.62440872192383	1532.677490234375	-475.2635192871095	1.7409907579422	1466.491943359375	-516.1682128906251	277.4334716796876	1594.130126953125	-554.6326293945314	280.5911560058594	1581.768676757813	-479.874237060547	355.0035095214844	1642.32373046875	-549.8806762695314	-296.8033142089844	1081.646118164063	-889.5986938476565	-273.2894287109376	1059.016967773438	-667.7677612304689	-463.9268798828126	1136.684204101563	-752.9379272460939	-471.5196533203126	1106.263061523438	-782.3538818359377	-464.1460266113282	1101.997680664063	-722.9363403320314	-326.1527099609376	818.5940551757815	-1000.562805175781	-277.2122802734376	752.0928344726564	-1022.038513183594	-230.5127563476563	761.9171142578126	-1019.660034179688	-291.3437805175782	691.8116455078126	-1014.635070800781	-270.0226135253907	605.8680419921876	-1017.475952148438	-229.4767303466797	556.7711791992189	-919.349304199219	-346.0857238769532	489.9739685058595	-991.4637451171877	-414.110321044922	545.0073242187501	-1003.409484863281	-402.6893310546876	502.9212646484376	-998.260925292969	-462.8461303710939	471.1179199218751	-941.4944458007815	-650.6207885742189	477.3055419921876	-916.703063964844	-607.0726928710939	453.8372192382814	-844.5297851562502	-671.2753906250001	538.7219238281251	-860.5391235351565	-663.8081665039064	307.2621765136719	-828.2171020507815	-692.9530029296876	309.8990173339844	-858.9101562500002	-744.9770507812501	351.8495788574219	-881.5343017578127	-286.1112060546876	788.0427856445315	-615.1423950195314	-236.8182830810547	742.0783081054689	-618.5579223632814	-206.579574584961	751.3208007812501	-626.9819946289064	-250.6179351806641	659.2143554687501	-637.6018676757814	-266.3772888183594	524.0609741210939	-673.6256103515626	-236.1210632324219	528.8442382812501	-788.2569580078127	-250.6827850341797	315.5075378417969	-718.0142211914064	-343.9788208007813	260.7286071777344	-711.9078369140626	-299.9597167968751	246.1479187011719	-716.4620361328126	-289.5317687988282	201.3071441650391	-756.1890869140626	-368.6594848632813	116.9189453125	-740.0312500000001	-338.7318725585938	137.4133758544922	-824.202087402344	-439.4423828125001	97.824821472168	-794.0529785156252	-214.7928009033204	53.34910964965822	-805.795349121094	-218.7731933593751	54.57667922973634	-759.9916381835939	-273.8090515136719	35.42694854736329	-708.1685791015626	nan	nan	nan	nan	nan	nan	nan	nan	nan	
803	4.01	-195.176498413086	1746.384521484375	-653.0996093750001	-359.0034484863282	1739.9365234375	-769.9685668945315	-327.6610717773438	1739.704345703125	-631.6728515625001	-416.120819091797	1574.62158203125	-710.8511962890626	-447.0436401367189	1266.153930664063	-745.2026977539064	nan	nan	nan	-350.0497131347657	1596.56787109375	-863.542419433594	-189.5818634033203	1563.82861328125	-983.3950805664065	-165.1512451171875	1596.187744140625	-953.7979125976565	-120.4350204467774	1575.032104492188	-987.3625488281252	-53.47020721435548	1584.785034179688	-986.1702270507815	-46.01193237304688	1512.46240234375	-956.1535644531252	224.6716308593751	1619.603393554688	-897.8250122070315	224.6879119873047	1629.86962890625	-973.422790527344	298.5385742187501	1665.551147460938	-887.716979980469	-300.0602416992188	1574.67236328125	-561.9075317382814	-136.9494781494141	1514.287719726563	-462.4220275878907	-111.791374206543	1549.651733398438	-488.2876892089845	-68.10400390625001	1514.96240234375	-464.8287353515626	-6.51815986633301	1532.318969726563	-475.3180236816407	1.9131178855896	1466.365112304688	-516.1131591796876	277.5709838867188	1593.78662109375	-554.6358642578126	280.7549133300782	1581.302856445313	-479.9897766113282	355.1042175292969	1642.068603515625	-549.9373168945314	-296.9372253417969	1081.279907226563	-889.4957275390627	-273.4508056640626	1058.608276367188	-667.7097778320314	-463.9883728027345	1136.371826171875	-752.9068603515626	-471.693572998047	1106.049682617188	-782.270935058594	-464.2024536132814	1101.626220703125	-722.9310913085939	-326.1882324218751	818.267028808594	-1000.516418457031	-277.2194519042969	751.7689208984376	-1022.041809082031	-230.3774719238282	761.5283203125001	-1019.522705078125	-291.3415832519532	691.4770507812501	-1014.622497558594	-269.8959350585938	605.6093750000001	-1017.479553222656	-229.487045288086	556.5852050781251	-919.3470458984377	-345.8135986328126	489.4296875000001	-991.3731079101565	-414.0391235351564	544.8411254882814	-1003.414672851563	-403.6785888671876	503.3073730468751	-998.403747558594	-463.0113525390626	470.8029785156251	-943.0610961914065	-650.6292724609376	477.1997375488282	-916.6805419921877	-607.0640258789064	453.732635498047	-844.5026855468752	-671.1198730468751	538.7402954101564	-860.560974121094	-663.8930664062501	306.9432678222657	-828.0504150390627	-693.1038208007814	309.8250732421876	-858.7082519531252	-745.1456298828126	351.9528503417969	-881.2928466796877	-285.7616882324219	787.786804199219	-615.1488647460939	-236.3736267089844	741.8777465820314	-618.5928344726564	-206.1508941650391	751.1887207031251	-627.2221679687501	-250.0382690429688	659.0086669921876	-637.6700439453126	-265.6253356933594	523.8425903320314	-673.7504882812501	-235.5521850585938	528.6476440429689	-788.3574218750002	-250.330551147461	315.2973937988282	-718.2365112304689	-343.6800537109376	260.7626037597657	-711.8866577148439	-299.7167053222657	246.0332641601563	-716.5580444335939	-289.3216247558594	201.1758880615235	-756.3970947265626	-368.5592651367188	116.8982315063477	-740.1315307617189	-338.7277526855469	137.3383178710938	-824.3369140625002	-439.4719848632814	97.91096496582034	-794.0967407226565	-214.8179779052735	53.34407424926759	-805.844177246094	-218.7511291503907	54.53892898559572	-760.1051635742189	-273.7755432128907	35.44325637817384	-708.2802124023439	nan	nan	nan	nan	nan	nan	nan	nan	nan	
